<svg xmlns="http://www.w3.org/2000/svg"><symbol id="cart-icon" viewBox="0 0 100 100"><path d="M81.7 64.1h3.8a3.3 3.3 0 0 0 3.1-2.4l1-3.6 8.5-32 .9-3.2a2.3 2.3 0 0 0-2.1-2.9h-3.3l-65-2.3v-10a3.2 3.2 0 0 0-3.3-3.2H4.2A3.2 3.2 0 0 0 .9 7.7v7.9a3.3 3.3 0 0 0 2.4 3.2l3.7.9 15.5 4.2v28.3a2.8 2.8 0 0 0 2.8 2.7h.5a2.8 2.8 0 0 0 2.8-2.7V23.7l63.3 2.2-8.6 32.2H23.9a3 3 0 0 0-2.5 1.2l-3.3 4.8L10 75.7 9 77a3 3 0 0 0 2.4 4.7h14.8a10.9 10.9 0 0 0-.3 2.6 11.9 11.9 0 0 0 9 11.6 15.4 15.4 0 0 0 3 .4 15.4 15.4 0 0 0 3-.4 11.9 11.9 0 0 0 9-11.6 21.1 21.1 0 0 0-.2-2.6h13a10.9 10.9 0 0 0-.3 2.6 11.9 11.9 0 0 0 9 11.6 15.4 15.4 0 0 0 3 .4 15.4 15.4 0 0 0 3-.4 11.9 11.9 0 0 0 9-11.6 21.1 21.1 0 0 0-.2-2.6h10a2.7 2.7 0 0 0 2.7-2.8v-.5a2.7 2.7 0 0 0-2.7-2.7H79a1.6 1.6 0 0 0-1.6 1.6 1.9 1.9 0 0 0 .7 1.4 6.2 6.2 0 0 1 2.5 3 7.5 7.5 0 0 1 .5 2.6 6.7 6.7 0 0 1-3.7 6 6.8 6.8 0 0 1-6 0 6.7 6.7 0 0 1-3.7-6 7.5 7.5 0 0 1 .5-2.6 6.2 6.2 0 0 1 2.5-3 1.6 1.6 0 0 0 .7-1.4 1.6 1.6 0 0 0-1.6-1.6H42.5a1.6 1.6 0 0 0-1.6 1.6 1.6 1.6 0 0 0 .7 1.4 6.2 6.2 0 0 1 2.5 3 7.5 7.5 0 0 1 .5 2.6 6.7 6.7 0 0 1-3.7 6 6.8 6.8 0 0 1-6 0 6.7 6.7 0 0 1-3.7-6 7.5 7.5 0 0 1 .5-2.6 6.2 6.2 0 0 1 2.5-3 1.6 1.6 0 0 0 .7-1.4 1.6 1.6 0 0 0-1.6-1.6h-16l8.1-11.6zM22.5 17.7L7 13.5v-3h15.5z"/></symbol><symbol id="facebook" viewBox="0 0 100 100"><path d="M49.9 1.1a49 49 0 1 0 49 49 49 49 0 0 0-49-49zm9.5 35.7h-4a2.3 2.3 0 0 0-2.3 2.3v5.2h6l-.5 7.3h-6.1v17.9h-7.2V51.4h-5.8v-7.1h5.6v-6a8.1 8.1 0 0 1 8-8.1h6.3z"/></symbol><symbol id="left-arrow" viewBox="0 0 100 100"><path d="M28.5 35.5L59.6 4.4C63.5.5 69.9 0 74 3.7a10.3 10.3 0 0 1 .5 15.2L43.2 50.2l31.1 31.1c3.9 3.9 4.4 10.3.7 14.4a10.3 10.3 0 0 1-15.2.5L28.5 64.9l-2.4-2.4a17.4 17.4 0 0 1 0-24.6z"/></symbol><symbol id="new-icon" viewBox="0 0 100 100"><path fill="#0792bc" d="M98.9 47a49 49 0 0 0-97.8 0C1 48 1 49 1 50s0 2 .1 3a49 49 0 0 0 97.8 0c.1-1 .1-2 .1-3s0-2-.1-3zM50 92.5A42.4 42.4 0 0 1 7.6 53c-.1-1-.1-2-.1-3s0-2 .1-3a42.5 42.5 0 0 1 84.8 0c.1 1 .1 2 .1 3s0 2-.1 3A42.4 42.4 0 0 1 50 92.5z"/><path fill="#e2e2e2" d="M50 7.5A42.4 42.4 0 0 0 7.6 47c-.1 1-.1 2-.1 3s0 2 .1 3a42.5 42.5 0 0 0 84.8 0c.1-1 .1-2 .1-3s0-2-.1-3A42.4 42.4 0 0 0 50 7.5z"/><path fill="#c1c1c1" d="M87.5 47.9a37.6 37.6 0 0 0-22.1-31.7c19 17.9 6.3 44.9-5.9 40.8-8.5-2.8-8.7-25.9 3.7-30.8l-3.9-4.7c-2.6 1.1-5.4 5.4-5.4 5.4-.7-3.4 2.4-9.5 2.4-9.5l-1-1.4-2.5-3-2.6-3.3-3 3.3-2.5 2.9-1.4 1.5a17.4 17.4 0 0 1 2.6 9.7 18 18 0 0 0-5.4-6.1l-4.1 5.1c12 4.5 13.5 28.9 2.4 31.4-12.8 2.8-22.1-28.3-3.2-41.7a37.5 37.5 0 0 0-23.1 32.1c0 .8-.1 1.7-.1 2.6s.1 1.7.1 2.6a37.6 37.6 0 0 0 75 0c0-.9.1-1.7.1-2.6s-.1-1.8-.1-2.6zM35.7 15.7z"/><path fill="#0792bc" d="M37 58.9h-4.2l-7.1-11.5v11.5h-3.9V42.2h5.1l6.1 9.5v-9.5h4zm16.4 0H41.3V42.2h12.1v3.2h-7.9v2.9h7.3v3.2h-7.3v4.1h7.9zM80 42.2l-4.5 16.7h-4.7l-3-10.9-3 10.9h-4.7l-4.5-16.7h4.5l2.5 11.5 3.1-11.5H70l3 11.5 2.7-11.5z"/></symbol><symbol id="pinterest" viewBox="0 0 100 100"><path d="M49.9 1.1a49 49 0 0 0-17.8 94.6 43.4 43.4 0 0 1 .3-15.2c1.8-7.9 3.6-15.9 5.5-23.8 0-.3-2.9-6.2-.4-12.6 3.4-8.9 13.6-8.3 14.3-.3.4 4.3-3 12.5-3.9 17.2s1.9 7.4 5.8 8 9.8-2.2 12.9-8.1 3.9-14.6 1.7-20.9S58 28 50.6 27.9C41.5 27.8 32.4 32 29 42.6c-1.8 5.9-.4 13.2 2.4 15.9 1 .9 1.1.9.7 2.4s-1.1 5.9-1.9 6.4-5.9-3.2-7.1-4.9c-4.6-6.6-5.1-16.7-2.7-23.9s8.2-13.8 17.3-17.3c14.8-5.5 33.5-1.6 40.8 14.4 2.6 5.6 3 12.9 1.6 19.3-1.9 8.9-7.1 17-15.3 20.6-5.5 2.4-12.9 2.8-17.8-1.1a8.5 8.5 0 0 1-2.4-2.6c-.7 3.9-1.9 7.7-3 11.6a44.1 44.1 0 0 1-6.5 13.4A49 49 0 1 0 49.9 1.1z"/></symbol><symbol id="right-close-arrow" viewBox="0 0 100 200"><path d="M74.3 35.5L43.2 4.4C39.3.5 32.9 0 28.8 3.7a10.3 10.3 0 0 0-.5 15.2l31.3 31.3-31.1 31.1c-3.9 3.9-4.4 10.3-.7 14.4a10.3 10.3 0 0 0 15.2.5l31.3-31.3 2.4-2.4a17.4 17.4 0 0 0 0-24.6zm-9.6 136.4l31.1-31.1a10.8 10.8 0 0 0 .8-14.5 10.5 10.5 0 0 0-15.2-.5L50 157.2l-31-31.1a10.7 10.7 0 0 0-14.5-.7 10.3 10.3 0 0 0-.5 15.1l31.3 31.4 2.5 2.4a17.3 17.3 0 0 0 24.5 0z"/></symbol><symbol id="sale-icon" viewBox="0 0 100 100"><path fill="#f86363" d="M98.9 47a49 49 0 0 0-97.8 0C1 48 1 49 1 50s0 2 .1 3a49 49 0 0 0 97.8 0c.1-1 .1-2 .1-3s0-2-.1-3zM50 92.5A42.4 42.4 0 0 1 7.6 53c-.1-1-.1-2-.1-3s0-2 .1-3a42.5 42.5 0 0 1 84.8 0c.1 1 .1 2 .1 3s0 2-.1 3A42.4 42.4 0 0 1 50 92.5z"/><path fill="none" d="M36 20.9a10.4 10.4 0 1 0 10.4 10.4A10.4 10.4 0 0 0 36 20.9z"/><path fill="#c1c1c1" d="M50 7.5A42.4 42.4 0 0 0 7.6 47c-.1 1-.1 2-.1 3s0 2 .1 3a42.5 42.5 0 0 0 84.8 0c.1-1 .1-2 .1-3s0-2-.1-3A42.4 42.4 0 0 0 50 7.5z"/><path fill="#e2e2e2" d="M69.2 82.8h-2.7a2.3 2.3 0 0 1-2.3-2.4 2.3 2.3 0 0 1 2.3-2.3h1.3a2.7 2.7 0 0 1-.5-1.5 2.5 2.5 0 0 1 .5-1.5H57.5a2.4 2.4 0 1 1 0-4.7h9.9a1.5 1.5 0 0 1-.1-.7 2.1 2.1 0 0 1 .3-1.2 2.4 2.4 0 0 1-1.7-2.3 2.3 2.3 0 0 1 2.3-2.3h-4.5a2.4 2.4 0 0 1-2.3-2.4 2.3 2.3 0 0 1 2.3-2.3h9.2a2.1 2.1 0 0 1-.7-1.7 1.8 1.8 0 0 1 .2-1H71a2.3 2.3 0 0 1-2.3-2.3A2.1 2.1 0 0 1 69 53H7.6A42.5 42.5 0 0 0 74 85.1h-2.4a2.3 2.3 0 0 1-2.4-2.3zM78 44.3h-7.8a2.3 2.3 0 0 1-2.4-2.3 2.4 2.4 0 0 1 2.4-2.4h4.1a2 2 0 0 1-.6-1.5 2 2 0 0 1 .1-.7h-3.6a2.3 2.3 0 0 1-2.4-2.3 2.3 2.3 0 0 1 1.8-2.2 2 2 0 0 1-.4-1.3 2.3 2.3 0 0 1 2.4-2.3H76a2.3 2.3 0 0 1-1.6-4h-9.1a2.4 2.4 0 0 1-2.4-2.4 2.3 2.3 0 0 1 2.4-2.3h1.3a3 3 0 0 1-.2-1 2.3 2.3 0 0 1 2.4-2.3h8.3A41.7 41.7 0 0 0 50 7.5 42.4 42.4 0 0 0 7.6 47h70.2a2.1 2.1 0 0 1-.3-1.2 2.5 2.5 0 0 1 .5-1.5zm-42-2.7a10.4 10.4 0 0 1 0-20.7 10.4 10.4 0 1 1 0 20.7z"/><path fill="#f86363" d="M32 52.6a4.6 4.6 0 0 1-2.1 4 9 9 0 0 1-5.7 1.6 13.7 13.7 0 0 1-3.6-.4 14 14 0 0 1-2.9-.9v-4h.5a10.8 10.8 0 0 0 3 1.6 9.5 9.5 0 0 0 3.2.6h1l1.1-.2.8-.5a1.2 1.2 0 0 0 .3-.9 1.4 1.4 0 0 0-.5-1l-1.3-.6-2-.4-2-.5a6.1 6.1 0 0 1-3-1.8 4.4 4.4 0 0 1-1-3 4.6 4.6 0 0 1 2.1-3.8 9.1 9.1 0 0 1 5.4-1.5 18.6 18.6 0 0 1 3.3.4 10.3 10.3 0 0 1 2.8.8v3.8h-.5a8.4 8.4 0 0 0-2.5-1.3 7.3 7.3 0 0 0-3-.6h-1a2.3 2.3 0 0 0-1.1.3 1.8 1.8 0 0 0-.7.5 1.1 1.1 0 0 0-.3.8 1.1 1.1 0 0 0 .5 1 7 7 0 0 0 1.9.6l1.8.4 1.8.5a5.8 5.8 0 0 1 2.8 1.7 4.3 4.3 0 0 1 .9 2.8zm18.4 5.3H46l-1.2-3.4h-6.2l-1.1 3.4h-4.4l6.2-16.7h5zm-6.6-6.5l-2.1-6-2 6zm21.1 6.5H52.8V41.2h4.4v13.4h7.7zm14.7 0H67.5V41.2h12.1v3.2h-7.8v2.9H79v3.2h-7.2v4.1h7.8z"/></symbol><symbol id="search" viewBox="0 0 100 100"><path d="M96 81.3L70.6 55.9a36.8 36.8 0 0 0 4.6-18 37 37 0 1 0-19.3 32.7L81.3 96A10.3 10.3 0 0 0 96 96a10.3 10.3 0 0 0 0-14.7zM16.5 37.9A21.5 21.5 0 1 1 38 59.4a21.6 21.6 0 0 1-21.5-21.5z"/></symbol><symbol id="toggle-nav" viewBox="0 0 100 200"><rect width="98.6" height="20.97" x=".7" y="1.1" rx="9.4"/><rect width="98.6" height="20.97" x=".7" y="39.7" rx="9.4"/><rect width="130.2" height="20.8" x="-15.1" y="139.7" rx="10.4" transform="rotate(-45 49.974 150.1)"/><rect width="130.2" height="20.8" x="-15.1" y="139.7" rx="10.4" transform="rotate(-135 49.992 150.108)"/><rect width="98.6" height="20.97" x=".7" y="78.4" rx="9.4"/></symbol><symbol id="trash-icon" viewBox="0 0 100 100"><path d="M77.6 10.1l-5.2 78c-.2 2.5-2 4.4-4.1 4.4H30.2a4.3 4.3 0 0 1-4-4.4l-5.3-78h-6.8l6.6 83.6a5 5 0 0 0 5.1 4.7h47a5 5 0 0 0 5-4.7l6.6-83.6z"/><rect width="87.9" height="5.86" x="5.4" y="10.1" rx="2.9"/><rect width="5.6" height="64.33" x="46.4" y="21.8" rx="2.8"/><rect width="5.6" height="64.33" x="29.1" y="21.8" rx="2.8" transform="rotate(-5 32.056 54.179)"/><rect width="5.6" height="64.33" x="62.7" y="21.8" rx="2.8" transform="rotate(-175 65.476 53.95)"/><path d="M44.3 6h11a3.8 3.8 0 0 1 3.3 2.4l2.1 4.6h6.4l-4.4-9.3a5 5 0 0 0-4.5-2.6H41.3a5 5 0 0 0-4.5 2.6L32.4 13h6.5L41 8.4A3.8 3.8 0 0 1 44.3 6z"/></symbol><symbol id="twitter" viewBox="0 0 100 100"><path d="M49.9 1.1a49 49 0 1 0 49 49 49 49 0 0 0-49-49zm6.6 61.1c-11.1 7.3-24.3.2-24.3.2s9.9.1 11.7-3.5c-6.8-.4-7.3-4.9-7.3-4.9l4.1.3c-7.1-2.7-6.8-7.9-6.8-7.9l3.8 1.4a9.5 9.5 0 0 1-2.6-10.2s9.5 8.4 15.6 7.3a3.9 3.9 0 0 1-.2-1.5 7.4 7.4 0 0 1 7.4-7.4 7.2 7.2 0 0 1 5.1 2.1l4.8-1.4-2.8 4 4-.7-3.8 3.4a19.4 19.4 0 0 1-8.7 18.8z"/></symbol><symbol id="warning" viewBox="0 0 100 100"><path d="M82.7 37.7c.7-21.2-7.5-33-27.6-34.7v-.8A1.6 1.6 0 0 0 53.5.6h-7a1.6 1.6 0 0 0-1.6 1.6v.9C25.6 4.9 16.3 16.7 17.3 36.8c0 .3.1.6.1.9C3.9 52.2-1.3 78.5 2.7 81.1c6.7 4.3 17.2 6.7 28.9 7.7l15.5 10.1a5.7 5.7 0 0 0 4.8 0l18.2-11H70c13.3-1.6 24.1-4.4 27.9-7.2s-2.8-25.6-15.2-43zM58.1 80.1H40.9V68.9h17.2zm-1.7-18.2H42.6l-2-44.9h17.8z"/></symbol></svg>