<svg xmlns="http://www.w3.org/2000/svg"><symbol id="cart-icon" viewBox="0 0 100 100"><path d="M81.7 64.1h3.8a3.3 3.3 0 0 0 3.1-2.4l1-3.6 8.5-32 .9-3.2a2.3 2.3 0 0 0-2.1-2.9h-3.3l-65-2.3v-10a3.2 3.2 0 0 0-3.3-3.2H4.2A3.2 3.2 0 0 0 .9 7.7v7.9a3.3 3.3 0 0 0 2.4 3.2l3.7.9 15.5 4.2v28.3a2.8 2.8 0 0 0 2.8 2.7h.5a2.8 2.8 0 0 0 2.8-2.7V23.7l63.3 2.2-8.6 32.2H23.9a3 3 0 0 0-2.5 1.2l-3.3 4.8L10 75.7 9 77a3 3 0 0 0 2.4 4.7h14.8a10.9 10.9 0 0 0-.3 2.6 11.9 11.9 0 0 0 9 11.6 15.4 15.4 0 0 0 3 .4 15.4 15.4 0 0 0 3-.4 11.9 11.9 0 0 0 9-11.6 21.1 21.1 0 0 0-.2-2.6h13a10.9 10.9 0 0 0-.3 2.6 11.9 11.9 0 0 0 9 11.6 15.4 15.4 0 0 0 3 .4 15.4 15.4 0 0 0 3-.4 11.9 11.9 0 0 0 9-11.6 21.1 21.1 0 0 0-.2-2.6h10a2.7 2.7 0 0 0 2.7-2.8v-.5a2.7 2.7 0 0 0-2.7-2.7H79a1.6 1.6 0 0 0-1.6 1.6 1.9 1.9 0 0 0 .7 1.4 6.2 6.2 0 0 1 2.5 3 7.5 7.5 0 0 1 .5 2.6 6.7 6.7 0 0 1-3.7 6 6.8 6.8 0 0 1-6 0 6.7 6.7 0 0 1-3.7-6 7.5 7.5 0 0 1 .5-2.6 6.2 6.2 0 0 1 2.5-3 1.6 1.6 0 0 0 .7-1.4 1.6 1.6 0 0 0-1.6-1.6H42.5a1.6 1.6 0 0 0-1.6 1.6 1.6 1.6 0 0 0 .7 1.4 6.2 6.2 0 0 1 2.5 3 7.5 7.5 0 0 1 .5 2.6 6.7 6.7 0 0 1-3.7 6 6.8 6.8 0 0 1-6 0 6.7 6.7 0 0 1-3.7-6 7.5 7.5 0 0 1 .5-2.6 6.2 6.2 0 0 1 2.5-3 1.6 1.6 0 0 0 .7-1.4 1.6 1.6 0 0 0-1.6-1.6h-16l8.1-11.6zM22.5 17.7L7 13.5v-3h15.5z"/></symbol><symbol id="facebook" viewBox="0 0 100 100"><path d="M49.9 1.1a49 49 0 1 0 49 49 49 49 0 0 0-49-49zm9.5 35.7h-4a2.3 2.3 0 0 0-2.3 2.3v5.2h6l-.5 7.3h-6.1v17.9h-7.2V51.4h-5.8v-7.1h5.6v-6a8.1 8.1 0 0 1 8-8.1h6.3z"/></symbol><symbol id="pinterest" viewBox="0 0 100 100"><path d="M49.9 1.1a49 49 0 0 0-17.8 94.6 43.4 43.4 0 0 1 .3-15.2c1.8-7.9 3.6-15.9 5.5-23.8 0-.3-2.9-6.2-.4-12.6 3.4-8.9 13.6-8.3 14.3-.3.4 4.3-3 12.5-3.9 17.2s1.9 7.4 5.8 8 9.8-2.2 12.9-8.1 3.9-14.6 1.7-20.9S58 28 50.6 27.9C41.5 27.8 32.4 32 29 42.6c-1.8 5.9-.4 13.2 2.4 15.9 1 .9 1.1.9.7 2.4s-1.1 5.9-1.9 6.4-5.9-3.2-7.1-4.9c-4.6-6.6-5.1-16.7-2.7-23.9s8.2-13.8 17.3-17.3c14.8-5.5 33.5-1.6 40.8 14.4 2.6 5.6 3 12.9 1.6 19.3-1.9 8.9-7.1 17-15.3 20.6-5.5 2.4-12.9 2.8-17.8-1.1a8.5 8.5 0 0 1-2.4-2.6c-.7 3.9-1.9 7.7-3 11.6a44.1 44.1 0 0 1-6.5 13.4A49 49 0 1 0 49.9 1.1z"/></symbol><symbol id="toggle-close" viewBox="0 0 100 100"><rect width="130.2" height="20.8" x="-15.1" y="39.8" rx="10.4" transform="rotate(-45 50.026 50.279)"/><rect width="130.2" height="20.8" x="-15.1" y="39.8" rx="10.4" transform="rotate(-135 50.03 50.215)"/></symbol><symbol id="toggle-open" viewBox="0 0 100 100"><rect width="98.6" height="20.97" x=".7" y="1.1" rx="9.4"/><rect width="98.6" height="20.97" x=".7" y="39.7" rx="9.4"/><rect width="98.6" height="20.97" x=".7" y="78.4" rx="9.4"/></symbol><symbol id="trash-icon" viewBox="0 0 100 100"><path d="M77.6 10.1l-5.2 78c-.2 2.5-2 4.4-4.1 4.4H30.2a4.3 4.3 0 0 1-4-4.4l-5.3-78h-6.8l6.6 83.6a5 5 0 0 0 5.1 4.7h47a5 5 0 0 0 5-4.7l6.6-83.6z"/><rect width="87.9" height="5.86" x="5.4" y="10.1" rx="2.9"/><rect width="5.6" height="64.33" x="46.4" y="21.8" rx="2.8"/><rect width="5.6" height="64.33" x="29.1" y="21.8" rx="2.8" transform="rotate(-5 32.056 54.179)"/><rect width="5.6" height="64.33" x="62.7" y="21.8" rx="2.8" transform="rotate(-175 65.476 53.95)"/><path d="M44.3 6h11a3.8 3.8 0 0 1 3.3 2.4l2.1 4.6h6.4l-4.4-9.3a5 5 0 0 0-4.5-2.6H41.3a5 5 0 0 0-4.5 2.6L32.4 13h6.5L41 8.4A3.8 3.8 0 0 1 44.3 6z"/></symbol><symbol id="twitter" viewBox="0 0 100 100"><path d="M49.9 1.1a49 49 0 1 0 49 49 49 49 0 0 0-49-49zm6.6 61.1c-11.1 7.3-24.3.2-24.3.2s9.9.1 11.7-3.5c-6.8-.4-7.3-4.9-7.3-4.9l4.1.3c-7.1-2.7-6.8-7.9-6.8-7.9l3.8 1.4a9.5 9.5 0 0 1-2.6-10.2s9.5 8.4 15.6 7.3a3.9 3.9 0 0 1-.2-1.5 7.4 7.4 0 0 1 7.4-7.4 7.2 7.2 0 0 1 5.1 2.1l4.8-1.4-2.8 4 4-.7-3.8 3.4a19.4 19.4 0 0 1-8.7 18.8z"/></symbol></svg>