<svg xmlns="http://www.w3.org/2000/svg"><symbol id="cart-icon" viewBox="0 0 100 100"><path fill="none" stroke="#231f20" stroke-linecap="round" stroke-linejoin="round" stroke-width="5.09" d="M25.4 52.2V7.6H3.6v7.7l21.8 5.5 71 1.8-12.6 38.9H25.4L11.1 78.7h19.3a7.3 7.3 0 0 0 3.7 13.7 7.4 7.4 0 0 0 7.5-7.3 7.2 7.2 0 0 0-3.8-6.4h32.5a7.5 7.5 0 1 0 7.5 0h18.6"/></symbol><symbol id="facebook" viewBox="0 0 100 100"><path d="M49.9 1.1a49 49 0 1 0 49 49 49 49 0 0 0-49-49zm9.5 35.7h-4a2.3 2.3 0 0 0-2.3 2.3v5.2h6l-.5 7.3h-6.1v17.9h-7.2V51.4h-5.8v-7.1h5.6v-6a8.1 8.1 0 0 1 8-8.1h6.3z"/></symbol><symbol id="pinterest" viewBox="0 0 100 100"><path d="M49.9 1.1a49 49 0 0 0-17.8 94.6 43.4 43.4 0 0 1 .3-15.2c1.8-7.9 3.6-15.9 5.5-23.8 0-.3-2.9-6.2-.4-12.6 3.4-8.9 13.6-8.3 14.3-.3.4 4.3-3 12.5-3.9 17.2s1.9 7.4 5.8 8 9.8-2.2 12.9-8.1 3.9-14.6 1.7-20.9S58 28 50.6 27.9C41.5 27.8 32.4 32 29 42.6c-1.8 5.9-.4 13.2 2.4 15.9 1 .9 1.1.9.7 2.4s-1.1 5.9-1.9 6.4-5.9-3.2-7.1-4.9c-4.6-6.6-5.1-16.7-2.7-23.9s8.2-13.8 17.3-17.3c14.8-5.5 33.5-1.6 40.8 14.4 2.6 5.6 3 12.9 1.6 19.3-1.9 8.9-7.1 17-15.3 20.6-5.5 2.4-12.9 2.8-17.8-1.1a8.5 8.5 0 0 1-2.4-2.6c-.7 3.9-1.9 7.7-3 11.6a44.1 44.1 0 0 1-6.5 13.4A49 49 0 1 0 49.9 1.1z"/></symbol><symbol id="toggle-close" viewBox="0 0 100 100"><rect width="130.2" height="20.8" x="-15.1" y="39.8" fill="#231f20" rx="10.4" transform="rotate(-45 50.026 50.279)"/><rect width="130.2" height="20.8" x="-15.1" y="39.8" fill="#231f20" rx="10.4" transform="rotate(-135 50.03 50.215)"/></symbol><symbol id="toggle-open" viewBox="0 0 100 100"><rect width="98.6" height="20.97" x=".7" y="1.1" fill="#231f20" rx="9.4"/><rect width="98.6" height="20.97" x=".7" y="39.7" fill="#231f20" rx="9.4"/><rect width="98.6" height="20.97" x=".7" y="78.4" fill="#231f20" rx="9.4"/></symbol><symbol id="trash-icon" viewBox="0 0 100 100"><path fill="none" stroke="#231f20" stroke-linecap="round" stroke-linejoin="round" stroke-width="5.13" d="M76.5 95.9H22.1L17 12.6h64.7l-5.2 83.3zM7.9 12.6h82.9m-54 0l3.7-8.5h17.9l3.5 8.5m-33.2 12l4 58.7m36.8-58.7l-4 58.7M49.3 24.6v58.7"/></symbol><symbol id="twitter" viewBox="0 0 100 100"><path d="M49.9 1.1a49 49 0 1 0 49 49 49 49 0 0 0-49-49zm6.6 61.1c-11.1 7.3-24.3.2-24.3.2s9.9.1 11.7-3.5c-6.8-.4-7.3-4.9-7.3-4.9l4.1.3c-7.1-2.7-6.8-7.9-6.8-7.9l3.8 1.4a9.5 9.5 0 0 1-2.6-10.2s9.5 8.4 15.6 7.3a3.9 3.9 0 0 1-.2-1.5 7.4 7.4 0 0 1 7.4-7.4 7.2 7.2 0 0 1 5.1 2.1l4.8-1.4-2.8 4 4-.7-3.8 3.4a19.4 19.4 0 0 1-8.7 18.8z"/></symbol></svg>