<svg xmlns="http://www.w3.org/2000/svg" width="16" height="16" viewBox="0 0 16 16"><path d="M1 5.4h2.6a.3.3 0 0 0 .3-.3.3.3 0 0 0-.3-.3H.1V3.6h3.7a1.3 1.3 0 0 1 1.3 1.3 1.3 1.3 0 0 1-1.3 1.4H2.4v1.4H1zm5.7 1.1V6h1.5v-.7H6.7v-.4H9V3.7H5.5v4h3.8V6.5H6.7zm7.1-2.9l-.3 2.1-.4-2.1h-1.6l-.3 2.1-.4-2.1H9.3l1 4.1H12l.3-1.6.3 1.6h1.7l1-4.1h-1.5zM1 9.9h2.6a.3.3 0 0 0 .3-.3.3.3 0 0 0-.3-.3H.9V8.1h2.9a1.3 1.3 0 0 1 1.3 1.4 1.3 1.3 0 0 1-1.3 1.3H2.4v1.4H1zM6.7 11v-.5h1.5v-.6H6.7v-.5H9V8.2H5.5v4h3.8V11H6.7zm9.2-2.9h-2.1l-.3 2.1-.4-2.1h-1.6l-.3 2.1-.4-2.1H9.3l1 4.1H12l.3-1.6.3 1.6h1.7l.8-2.9h.8V8.1z"/></svg>