<svg xmlns="http://www.w3.org/2000/svg" width="64" height="35" viewBox="0 0 64 35"><path d="M3.7 7.2h10.9a1.1 1.1 0 0 0 1.1-1.1 1.3 1.3 0 0 0-1.1-1.2H.5V.2H15a5.4 5.4 0 0 1 5.4 5.4A5.4 5.4 0 0 1 15 11H9.6v5.6H3.7zm33.5 9.4v-4.9H26.8V9.9h6.1V7.2h-6.1V5.3h9.1V.4h-14v16.2h15.3zm13.2 0l-1.1-6.4-1.1 6.4h-7L37.2.2h6l1.5 8.2L46.1.2h6.4l1.4 8.2L55.4.2h6l-4 16.4h-7zM3.7 25.4h10.9a1.1 1.1 0 0 0 1.1-1.2 1.1 1.1 0 0 0-1.1-1.1H3.7v-4.7H15a5.4 5.4 0 0 1 5.4 5.3 5.4 5.4 0 0 1-5.4 5.4H9.6v5.7H3.7zm32.2-6.8v4.9h-9.1v1.8h6.1V28h-6.1v1.9h10.4v4.9H21.9V18.6h14zm19.5-.2l-1.5 8.2-1.4-8.2h-6.4l-1.4 8.2-1.5-8.2h-6l4 16.4h7l1.1-6.4 1.1 6.4h7l2.9-11.7h3.2v-4.7h-8.1z"/></svg>