<svg xmlns="http://www.w3.org/2000/svg" width="32" height="18" viewBox="0 0 32 18"><path d="M1.9 3.9h5.4a.6.6 0 0 0 .6-.6.6.6 0 0 0-.6-.6h-7V.4h7.2a2.7 2.7 0 0 1 2.7 2.7 2.7 2.7 0 0 1-2.7 2.6H4.8v2.8H1.9zm16.7 4.7V6.1h-5.2v-.9h3.1V3.9h-3.1v-1h4.5V.5h-7v8.1h7.7zm6.6 0l-.5-3.2-.6 3.2h-3.5l-2-8.2h3l.7 4.1.8-4.1h3.1l.8 4.1.7-4.1h3l-2 8.2h-3.5zM1.9 12.9h5.4a.6.6 0 0 0 .6-.5.6.6 0 0 0-.6-.6H1.9V9.4h5.6a2.7 2.7 0 0 1 2.7 2.7 2.7 2.7 0 0 1-2.7 2.7H4.8v2.8H1.9zm16-3.4V12h-4.5v.9h3.1v1.3h-3.1v1h5.2v2.4h-7.7V9.5h7zm9.8-.1l-.7 4.1-.8-4.1h-3.1l-.8 4.1-.7-4.1h-3l2 8.2h3.5l.6-3.2.5 3.2h3.5l1.4-5.8h1.6V9.4h-4z"/></svg>