<svg xmlns="http://www.w3.org/2000/svg" width="64" height="64" viewBox="0 0 64 64"><path d="M3.9 22.8h10.7a1.1 1.1 0 0 0 1.2-1.1 1.2 1.2 0 0 0-1.2-1.2H.6v-4.7h14.5a5.4 5.4 0 0 1 5.4 5.4 5.4 5.4 0 0 1-5.4 5.3H9.7v5.6H3.9zm22.9 4.5v-1.9h6.1v-2.6h-6.1v-1.9h9V16H21.9v16.2h15.3v-4.9H26.8zm28.5-11.5L53.9 24l-1.5-8.2h-6.3L44.6 24l-1.4-8.2h-6l4 16.4h6.9l1.1-6.4 1.2 6.4h6.9l4-16.4h-6zM3.9 40.9h10.7a1.1 1.1 0 0 0 1.2-1.1 1.2 1.2 0 0 0-1.2-1.2H3.8v-4.7h11.3a5.4 5.4 0 0 1 5.4 5.3 5.4 5.4 0 0 1-5.4 5.4H9.7v5.6H3.9zm22.9 4.4v-1.8h6.1v-2.7h-6.1V39h9v-4.9H21.9v16.1h15.3v-4.9H26.8zm36.6-11.5h-8.1l-1.4 8.3-1.5-8.3h-6.3l-1.5 8.3-1.4-8.3h-6l4 16.4h6.9l1.1-6.4 1.2 6.4h6.9l2.8-11.7h3.3v-4.7z"/></svg>