<svg xmlns="http://www.w3.org/2000/svg" width="16" height="9" viewBox="0 0 16 9"><path d="M.9 1.9h2.7c.2 0 .3-.1.3-.2a.3.3 0 0 0-.3-.3H.1V.2h3.7a1.3 1.3 0 0 1 1.3 1.3 1.3 1.3 0 0 1-1.3 1.4H2.4v1.4H.9zm8.4 2.4V3.1H6.7v-.5h1.5v-.7H6.7v-.4H9V.2H5.5v4.1h3.8zm3.3 0l-.3-1.6-.3 1.6h-1.7L9.3.2h1.5l.4 2 .3-2h1.6l.4 2 .3-2h1.5l-.9 4.1h-1.8zM.9 6.5h2.7a.3.3 0 0 0 .3-.3.3.3 0 0 0-.3-.3H.9V4.7h2.9a1.3 1.3 0 0 1 1.3 1.4 1.3 1.3 0 0 1-1.3 1.3H2.4v1.4H.9zM9 4.8V6H6.7v.5h1.5v.6H6.7v.5h2.6v1.2H5.5v-4H9zm4.8-.1l-.3 2.1-.4-2.1h-1.6l-.3 2.1-.4-2.1H9.3l1 4.1H12l.3-1.6.3 1.6h1.8l.7-2.9h.8V4.7h-2.1z"/></svg>