<svg xmlns="http://www.w3.org/2000/svg" width="256" height="256" viewBox="0 0 256 256"><path d="M13.9 85.9h43.7a4.7 4.7 0 0 0 4.6-4.6 4.7 4.7 0 0 0-4.6-4.7H.8V57.5h58.7a21.7 21.7 0 0 1 21.7 21.8A21.7 21.7 0 0 1 59.5 101H37.7v22.6H13.9zM107 104v-7.6h24.7V85.7H107v-7.5h36.6V58.3H87.2v65.5h61.9V104H107zm115.5-46.7l-5.9 33.3-5.9-33.3h-25.6l-5.9 33.3-5.8-33.3h-24.3l16 66.5h28.2l4.6-25.9 4.6 25.9h28.2l16-66.5h-24.2zM13.9 159.2h43.7a4.7 4.7 0 0 0 4.6-4.6 4.9 4.9 0 0 0-4.6-4.8H13.7v-19h45.8a21.7 21.7 0 0 1 21.7 21.7 21.7 21.7 0 0 1-21.7 21.8H37.7v22.6H13.9zm93.1 18.1v-7.6h24.7V159H107v-7.6h36.6v-19.8H87.2v65.5h61.9v-19.8H107zm148.2-46.7h-32.7l-5.9 33.3-5.9-33.3h-25.6l-5.9 33.3-5.8-33.3h-24.3l16 66.5h28.2l4.6-26 4.6 26h28.2l11.5-47.4h13v-19.1z"/></svg>