<svg xmlns="http://www.w3.org/2000/svg" width="256" height="142" viewBox="0 0 256 142"><path d="M13.9 29.7h43.7a4.7 4.7 0 0 0 4.6-4.6 4.8 4.8 0 0 0-4.6-4.8H.8v-19h58.7A21.7 21.7 0 0 1 81.2 23a21.8 21.8 0 0 1-21.7 21.8H37.7v22.6H13.9zm135.2 37.9V47.8H107v-7.6h24.7V29.5H107v-7.6h36.6V2.1H87.2v65.5h61.9zm53.4 0l-4.6-26-4.6 26h-28.2l-16-66.3h24.3l5.8 33.1 5.9-33.1h25.6l5.9 33.1 5.9-33.1h24.2l-16 66.3h-28.2zM13.9 103h43.7a4.7 4.7 0 0 0 4.6-4.6 4.8 4.8 0 0 0-4.6-4.8H13.7v-19h45.8a21.7 21.7 0 0 1 21.7 21.7 21.8 21.8 0 0 1-21.7 21.8H37.7v22.8H13.9zm129.7-27.6v19.8H107v7.6h24.7v10.7H107v7.6h42.1v19.8H87.2V75.4h56.4zm78.9-.8l-5.9 33.1-5.9-33.1h-25.6l-5.9 33.1-5.8-33.1h-24.3l16 66.3h28.2l4.6-26 4.6 26h28.2l11.4-47.2h13.1V74.6h-32.7z"/></svg>