<svg xmlns="http://www.w3.org/2000/svg" width="32" height="32" viewBox="0 0 32 32"><path d="M1.9 10.5h5.4a.6.6 0 0 0 .5-.6.6.6 0 0 0-.5-.6h-7V7h7.2a2.7 2.7 0 0 1 2.7 2.7 2.7 2.7 0 0 1-2.7 2.7H4.8v2.8H1.9zm11.5 2.2v-.9h3v-1.3h-3v-1h4.5V7.1h-7v8.1h7.7v-2.5h-5.2zM27.6 7l-.7 4.1-.7-4.1H23l-.7 4.1-.7-4.1h-3l2 8.2H24l.6-3.2.6 3.2h3.5L30.6 7h-3zM1.9 19.5h5.4a.5.5 0 0 0 .5-.5.6.6 0 0 0-.5-.6H1.9V16h5.6a2.7 2.7 0 0 1 2.7 2.7 2.7 2.7 0 0 1-2.7 2.7H4.8v2.8H1.9zm11.5 2.3v-1h3v-1.3h-3v-.9h4.5v-2.5h-7v8.1h7.7v-2.4h-5.2zM31.7 16h-4.1l-.7 4.1-.7-4.1H23l-.7 4.1-.7-4.1h-3l2 8.2H24l.6-3.2.6 3.2h3.5l1.4-5.8h1.6V16z"/></svg>