<svg xmlns="http://www.w3.org/2000/svg" width="100" height="100" viewBox="0 0 100 100"><path d="M49.9 1.1a49 49 0 0 0-17.8 94.6 43.4 43.4 0 0 1 .3-15.2c1.8-7.9 3.6-15.9 5.5-23.8 0-.3-2.9-6.2-.4-12.6 3.4-8.9 13.6-8.3 14.3-.3.4 4.3-3 12.5-3.9 17.2s1.9 7.4 5.8 8 9.8-2.2 12.9-8.1 3.9-14.6 1.7-20.9S58 28 50.6 27.9C41.5 27.8 32.4 32 29 42.6c-1.8 5.9-.4 13.2 2.4 15.9 1 .9 1.1.9.7 2.4s-1.1 5.9-1.9 6.4-5.9-3.2-7.1-4.9c-4.6-6.6-5.1-16.7-2.7-23.9s8.2-13.8 17.3-17.3c14.8-5.5 33.5-1.6 40.8 14.4 2.6 5.6 3 12.9 1.6 19.3-1.9 8.9-7.1 17-15.3 20.6-5.5 2.4-12.9 2.8-17.8-1.1a8.5 8.5 0 0 1-2.4-2.6c-.7 3.9-1.9 7.7-3 11.6a44.1 44.1 0 0 1-6.5 13.4A49 49 0 1 0 49.9 1.1z"/></svg>